<svg xmlns="http://www.w3.org/2000/svg" version="1.1" id="Layer_1" x="0px" y="0px" viewBox="0 0 251.5471802 315" width="251.5471802" height="315">
  <g id="color_index_0">
    <path d="M154.8465424,0v114.3059998c30.0048218,11.6494064,51.25737,40.7830811,51.25737,74.9005737&#9;&#9;c0,44.3691101-35.9612122,80.3303223-80.3303223,80.3303223s-80.3303299-35.9612122-80.3303299-80.3303223&#9;&#9;c0-34.1174927,21.2525558-63.2511673,51.2573776-74.9005737V0C73.370285,44.4591293-0.209643,130.8089142,0.000449,189.2065735&#9;&#9;C0.250482,258.6771545,56.3025093,315,125.7735901,315s125.5231018-56.3228455,125.7731323-125.7934265&#9;&#9;C251.7569427,130.8089142,178.1770172,44.4591293,154.8465424,0z"/>
  </g>
</svg>